<svg width="20" height="20" viewBox="0 0 20 20" fill="none" xmlns="http://www.w3.org/2000/svg">
<rect width="20" height="20" rx="10" fill="#0E347E"/>
<path d="M10.0001 13.3334C10.8841 13.3334 11.732 12.9822 12.3571 12.3571C12.9822 11.732 13.3334 10.8841 13.3334 10.0001C13.3334 9.11603 12.9822 8.26818 12.3571 7.64306C11.732 7.01794 10.8841 6.66675 10.0001 6.66675C9.11603 6.66675 8.26818 7.01794 7.64306 7.64306C7.01794 8.26818 6.66675 9.11603 6.66675 10.0001C6.66675 10.8841 7.01794 11.732 7.64306 12.3571C8.26818 12.9822 9.11603 13.3334 10.0001 13.3334Z" stroke="white" stroke-width="1.5" stroke-linecap="round" stroke-linejoin="round"/>
<path d="M3.33337 12.963V7.03708C3.33337 6.05479 3.72358 5.11274 4.41816 4.41816C5.11274 3.72358 6.05479 3.33337 7.03708 3.33337H12.963C13.9453 3.33337 14.8873 3.72358 15.5819 4.41816C16.2765 5.11274 16.6667 6.05479 16.6667 7.03708V12.963C16.6667 13.9453 16.2765 14.8873 15.5819 15.5819C14.8873 16.2765 13.9453 16.6667 12.963 16.6667H7.03708C6.05479 16.6667 5.11274 16.2765 4.41816 15.5819C3.72358 14.8873 3.33337 13.9453 3.33337 12.963Z" stroke="white"/>
<path d="M13.75 5.42506L13.7583 5.41589" stroke="white" stroke-width="1.5" stroke-linecap="round" stroke-linejoin="round"/>
</svg>
